{
  "asset": {
    "version": "2.0",
    "generator": "THREE.GLTFExporter"
  },
  "scenes": [
    {
      "name": "Scene",
      "nodes": [
        6
      ]
    }
  ],
  "scene": 0,
  "nodes": [
    {
      "name": "BezierCurve001_1",
      "extras": {
        "name": "BezierCurve001_1"
      },
      "mesh": 0
    },
    {
      "name": "BezierCurve001",
      "extras": {
        "name": "BezierCurve001"
      },
      "mesh": 1
    },
    {
      "name": "BezierCurve001_2",
      "extras": {
        "name": "BezierCurve001_2"
      },
      "mesh": 2
    },
    {
      "name": "Einkaufswagen",
      "extras": {
        "name": "Einkaufswagen"
      },
      "children": [
        0,
        1,
        2
      ]
    },
    {
      "name": "cartglb",
      "extras": {
        "name": "cart.glb"
      },
      "children": [
        3
      ]
    },
    {
      "rotation": [
        0.483536034822464,
        0.33687159419059753,
        -0.20870360732078552,
        0.7804827094078064
      ],
      "translation": [
        7.358891487121582,
        4.958309173583984,
        6.925790786743164
      ],
      "name": "Camera",
      "extras": {
        "name": "Camera"
      }
    },
    {
      "name": "cartanim.glb",
      "children": [
        4,
        5
      ]
    }
  ],
  "bufferViews": [
    {
      "buffer": 0,
      "byteOffset": 0,
      "byteLength": 552,
      "target": 34962,
      "byteStride": 12
    },
    {
      "buffer": 0,
      "byteOffset": 552,
      "byteLength": 552,
      "target": 34962,
      "byteStride": 12
    },
    {
      "buffer": 0,
      "byteOffset": 1104,
      "byteLength": 368,
      "target": 34962,
      "byteStride": 8
    },
    {
      "buffer": 0,
      "byteOffset": 1472,
      "byteLength": 840,
      "target": 34963
    },
    {
      "buffer": 0,
      "byteOffset": 2312,
      "byteLength": 4656,
      "target": 34962,
      "byteStride": 12
    },
    {
      "buffer": 0,
      "byteOffset": 6968,
      "byteLength": 4656,
      "target": 34962,
      "byteStride": 12
    },
    {
      "buffer": 0,
      "byteOffset": 11624,
      "byteLength": 3104,
      "target": 34962,
      "byteStride": 8
    },
    {
      "buffer": 0,
      "byteOffset": 14728,
      "byteLength": 7680,
      "target": 34963
    },
    {
      "buffer": 0,
      "byteOffset": 22408,
      "byteLength": 12576,
      "target": 34962,
      "byteStride": 12
    },
    {
      "buffer": 0,
      "byteOffset": 34984,
      "byteLength": 12576,
      "target": 34962,
      "byteStride": 12
    },
    {
      "buffer": 0,
      "byteOffset": 47560,
      "byteLength": 8384,
      "target": 34962,
      "byteStride": 8
    },
    {
      "buffer": 0,
      "byteOffset": 55944,
      "byteLength": 18120,
      "target": 34963
    },
    {
      "buffer": 0,
      "byteOffset": 74064,
      "byteLength": 240
    },
    {
      "buffer": 0,
      "byteOffset": 74304,
      "byteLength": 720
    },
    {
      "buffer": 0,
      "byteOffset": 75024,
      "byteLength": 240
    },
    {
      "buffer": 0,
      "byteOffset": 75264,
      "byteLength": 960
    },
    {
      "buffer": 0,
      "byteOffset": 76224,
      "byteLength": 240
    },
    {
      "buffer": 0,
      "byteOffset": 76464,
      "byteLength": 720
    },
    {
      "buffer": 0,
      "byteOffset": 77184,
      "byteLength": 124
    },
    {
      "buffer": 0,
      "byteOffset": 77308,
      "byteLength": 372
    },
    {
      "buffer": 0,
      "byteOffset": 77680,
      "byteLength": 124
    },
    {
      "buffer": 0,
      "byteOffset": 77804,
      "byteLength": 496
    },
    {
      "buffer": 0,
      "byteOffset": 78300,
      "byteLength": 124
    },
    {
      "buffer": 0,
      "byteOffset": 78424,
      "byteLength": 372
    },
    {
      "buffer": 0,
      "byteOffset": 78796,
      "byteLength": 240
    },
    {
      "buffer": 0,
      "byteOffset": 79036,
      "byteLength": 720
    },
    {
      "buffer": 0,
      "byteOffset": 79756,
      "byteLength": 240
    },
    {
      "buffer": 0,
      "byteOffset": 79996,
      "byteLength": 960
    },
    {
      "buffer": 0,
      "byteOffset": 80956,
      "byteLength": 240
    },
    {
      "buffer": 0,
      "byteOffset": 81196,
      "byteLength": 720
    },
    {
      "buffer": 0,
      "byteOffset": 81916,
      "byteLength": 124
    },
    {
      "buffer": 0,
      "byteOffset": 82040,
      "byteLength": 372
    },
    {
      "buffer": 0,
      "byteOffset": 82412,
      "byteLength": 124
    },
    {
      "buffer": 0,
      "byteOffset": 82536,
      "byteLength": 496
    },
    {
      "buffer": 0,
      "byteOffset": 83032,
      "byteLength": 124
    },
    {
      "buffer": 0,
      "byteOffset": 83156,
      "byteLength": 372
    },
    {
      "buffer": 0,
      "byteOffset": 83528,
      "byteLength": 124
    },
    {
      "buffer": 0,
      "byteOffset": 83652,
      "byteLength": 372
    },
    {
      "buffer": 0,
      "byteOffset": 84024,
      "byteLength": 124
    },
    {
      "buffer": 0,
      "byteOffset": 84148,
      "byteLength": 496
    },
    {
      "buffer": 0,
      "byteOffset": 84644,
      "byteLength": 124
    },
    {
      "buffer": 0,
      "byteOffset": 84768,
      "byteLength": 372
    }
  ],
  "buffers": [
    {
      "byteLength": 85140,
      "uri": "data:application/octet-stream;base64,"
    }
  ],
  "accessors": [
    {
      "bufferView": 0,
      "componentType": 5126,
      "count": 46,
      "max": [
        0.037621088325977325,
        0.13506180047988892,
        -0.03809955343604088
      ],
      "min": [
        -0.037621088325977325,
        0.12379132211208344,
        -0.05825231224298477
      ],
      "type": "VEC3"
    },
    {
      "bufferView": 1,
      "componentType": 5126,
      "count": 46,
      "max": [
        0.6645076274871826,
        1,
        0.9749020934104919
      ],
      "min": [
        -0.6645076274871826,
        -0.9011151790618896,
        -0.9749020934104919
      ],
      "type": "VEC3"
    },
    {
      "bufferView": 2,
      "componentType": 5126,
      "count": 46,
      "max": [
        0,
        1
      ],
      "min": [
        0,
        1
      ],
      "type": "VEC2"
    },
    {
      "bufferView": 3,
      "componentType": 5125,
      "count": 210,
      "max": [
        45
      ],
      "min": [
        0
      ],
      "type": "SCALAR"
    },
    {
      "bufferView": 4,
      "componentType": 5126,
      "count": 388,
      "max": [
        0.04316585138440132,
        0.021962551400065422,
        0.07106761634349823
      ],
      "min": [
        -0.04316335543990135,
        0,
        -0.06584732234477997
      ],
      "type": "VEC3"
    },
    {
      "bufferView": 5,
      "componentType": 5126,
      "count": 388,
      "max": [
        0.9996785521507263,
        1,
        0.9513595700263977
      ],
      "min": [
        -0.9996784925460815,
        -0.9513595700263977,
        -0.9513595700263977
      ],
      "type": "VEC3"
    },
    {
      "bufferView": 6,
      "componentType": 5126,
      "count": 388,
      "max": [
        0,
        1
      ],
      "min": [
        0,
        1
      ],
      "type": "VEC2"
    },
    {
      "bufferView": 7,
      "componentType": 5125,
      "count": 1920,
      "max": [
        387
      ],
      "min": [
        0
      ],
      "type": "SCALAR"
    },
    {
      "bufferView": 8,
      "componentType": 5126,
      "count": 1048,
      "max": [
        0.04012688994407654,
        0.1297394037246704,
        0.0737275555729866
      ],
      "min": [
        -0.04012909531593323,
        0.002555929124355316,
        -0.06329139322042465
      ],
      "type": "VEC3"
    },
    {
      "bufferView": 9,
      "componentType": 5126,
      "count": 1048,
      "max": [
        1,
        0.9999922513961792,
        1
      ],
      "min": [
        -1,
        -1,
        -0.9999980926513672
      ],
      "type": "VEC3"
    },
    {
      "bufferView": 10,
      "componentType": 5126,
      "count": 1048,
      "max": [
        1,
        1
      ],
      "min": [
        0,
        0
      ],
      "type": "VEC2"
    },
    {
      "bufferView": 11,
      "componentType": 5125,
      "count": 4530,
      "max": [
        1047
      ],
      "min": [
        0
      ],
      "type": "SCALAR"
    },
    {
      "bufferView": 12,
      "componentType": 5126,
      "count": 60,
      "max": [
        2.5
      ],
      "min": [
        0.0416666679084301
      ],
      "type": "SCALAR"
    },
    {
      "bufferView": 13,
      "componentType": 5126,
      "count": 60,
      "max": [
        0.06757635623216629,
        0,
        0
      ],
      "min": [
        0,
        -0.07376375049352646,
        -0.032078295946121216
      ],
      "type": "VEC3"
    },
    {
      "bufferView": 14,
      "componentType": 5126,
      "count": 60,
      "max": [
        2.5
      ],
      "min": [
        0.0416666679084301
      ],
      "type": "SCALAR"
    },
    {
      "bufferView": 15,
      "componentType": 5126,
      "count": 60,
      "max": [
        0,
        0,
        0,
        1
      ],
      "min": [
        0,
        0,
        0,
        1
      ],
      "type": "VEC4"
    },
    {
      "bufferView": 16,
      "componentType": 5126,
      "count": 60,
      "max": [
        2.5
      ],
      "min": [
        0.0416666679084301
      ],
      "type": "SCALAR"
    },
    {
      "bufferView": 17,
      "componentType": 5126,
      "count": 60,
      "max": [
        1.4948025941848755,
        1.4948025941848755,
        1.4948025941848755
      ],
      "min": [
        1,
        1,
        1
      ],
      "type": "VEC3"
    },
    {
      "bufferView": 18,
      "componentType": 5126,
      "count": 31,
      "max": [
        2.5
      ],
      "min": [
        1.25
      ],
      "type": "SCALAR"
    },
    {
      "bufferView": 19,
      "componentType": 5126,
      "count": 31,
      "max": [
        0,
        0,
        0
      ],
      "min": [
        0,
        0,
        0
      ],
      "type": "VEC3"
    },
    {
      "bufferView": 20,
      "componentType": 5126,
      "count": 31,
      "max": [
        2.5
      ],
      "min": [
        1.25
      ],
      "type": "SCALAR"
    },
    {
      "bufferView": 21,
      "componentType": 5126,
      "count": 31,
      "max": [
        0,
        0,
        0,
        1
      ],
      "min": [
        0,
        0,
        0,
        1
      ],
      "type": "VEC4"
    },
    {
      "bufferView": 22,
      "componentType": 5126,
      "count": 31,
      "max": [
        2.5
      ],
      "min": [
        1.25
      ],
      "type": "SCALAR"
    },
    {
      "bufferView": 23,
      "componentType": 5126,
      "count": 31,
      "max": [
        1,
        1,
        1
      ],
      "min": [
        1,
        1,
        1
      ],
      "type": "VEC3"
    },
    {
      "bufferView": 24,
      "componentType": 5126,
      "count": 60,
      "max": [
        2.5
      ],
      "min": [
        0.0416666679084301
      ],
      "type": "SCALAR"
    },
    {
      "bufferView": 25,
      "componentType": 5126,
      "count": 60,
      "max": [
        0,
        0,
        0
      ],
      "min": [
        0,
        0,
        0
      ],
      "type": "VEC3"
    },
    {
      "bufferView": 26,
      "componentType": 5126,
      "count": 60,
      "max": [
        2.5
      ],
      "min": [
        0.0416666679084301
      ],
      "type": "SCALAR"
    },
    {
      "bufferView": 27,
      "componentType": 5126,
      "count": 60,
      "max": [
        0,
        0,
        0,
        1
      ],
      "min": [
        0,
        0,
        0,
        1
      ],
      "type": "VEC4"
    },
    {
      "bufferView": 28,
      "componentType": 5126,
      "count": 60,
      "max": [
        2.5
      ],
      "min": [
        0.0416666679084301
      ],
      "type": "SCALAR"
    },
    {
      "bufferView": 29,
      "componentType": 5126,
      "count": 60,
      "max": [
        1,
        1,
        1
      ],
      "min": [
        1,
        1,
        1
      ],
      "type": "VEC3"
    },
    {
      "bufferView": 30,
      "componentType": 5126,
      "count": 31,
      "max": [
        2.5
      ],
      "min": [
        1.25
      ],
      "type": "SCALAR"
    },
    {
      "bufferView": 31,
      "componentType": 5126,
      "count": 31,
      "max": [
        0,
        0,
        0
      ],
      "min": [
        0,
        0,
        0
      ],
      "type": "VEC3"
    },
    {
      "bufferView": 32,
      "componentType": 5126,
      "count": 31,
      "max": [
        2.5
      ],
      "min": [
        1.25
      ],
      "type": "SCALAR"
    },
    {
      "bufferView": 33,
      "componentType": 5126,
      "count": 31,
      "max": [
        0,
        0,
        0,
        1
      ],
      "min": [
        0,
        0,
        0,
        1
      ],
      "type": "VEC4"
    },
    {
      "bufferView": 34,
      "componentType": 5126,
      "count": 31,
      "max": [
        2.5
      ],
      "min": [
        1.25
      ],
      "type": "SCALAR"
    },
    {
      "bufferView": 35,
      "componentType": 5126,
      "count": 31,
      "max": [
        1,
        1,
        1
      ],
      "min": [
        1,
        1,
        1
      ],
      "type": "VEC3"
    },
    {
      "bufferView": 36,
      "componentType": 5126,
      "count": 31,
      "max": [
        2.5
      ],
      "min": [
        1.25
      ],
      "type": "SCALAR"
    },
    {
      "bufferView": 37,
      "componentType": 5126,
      "count": 31,
      "max": [
        0,
        0,
        0
      ],
      "min": [
        0,
        0,
        0
      ],
      "type": "VEC3"
    },
    {
      "bufferView": 38,
      "componentType": 5126,
      "count": 31,
      "max": [
        2.5
      ],
      "min": [
        1.25
      ],
      "type": "SCALAR"
    },
    {
      "bufferView": 39,
      "componentType": 5126,
      "count": 31,
      "max": [
        0,
        0,
        0,
        1
      ],
      "min": [
        0,
        0,
        0,
        1
      ],
      "type": "VEC4"
    },
    {
      "bufferView": 40,
      "componentType": 5126,
      "count": 31,
      "max": [
        2.5
      ],
      "min": [
        1.25
      ],
      "type": "SCALAR"
    },
    {
      "bufferView": 41,
      "componentType": 5126,
      "count": 31,
      "max": [
        1,
        1,
        1
      ],
      "min": [
        1,
        1,
        1
      ],
      "type": "VEC3"
    }
  ],
  "materials": [
    {
      "pbrMetallicRoughness": {
        "baseColorFactor": [
          0.8000000715255737,
          0.2468610554933548,
          0.011359923519194126,
          1
        ],
        "metallicFactor": 0,
        "roughnessFactor": 0.7833333015441895
      },
      "doubleSided": true,
      "name": "Griff"
    },
    {
      "pbrMetallicRoughness": {
        "baseColorFactor": [
          0.008075856603682041,
          0.008075856603682041,
          0.008075856603682041,
          1
        ],
        "metallicFactor": 0,
        "roughnessFactor": 0.8083333373069763
      },
      "doubleSided": true,
      "name": "Gum"
    },
    {
      "pbrMetallicRoughness": {
        "baseColorFactor": [
          0.800000011920929,
          0.800000011920929,
          0.800000011920929,
          1
        ],
        "metallicFactor": 1,
        "roughnessFactor": 0.12548211216926575
      },
      "doubleSided": true,
      "name": "Chrome"
    }
  ],
  "meshes": [
    {
      "primitives": [
        {
          "mode": 4,
          "attributes": {
            "POSITION": 0,
            "NORMAL": 1,
            "TEXCOORD_0": 2
          },
          "indices": 3,
          "material": 0
        }
      ]
    },
    {
      "primitives": [
        {
          "mode": 4,
          "attributes": {
            "POSITION": 4,
            "NORMAL": 5,
            "TEXCOORD_0": 6
          },
          "indices": 7,
          "material": 1
        }
      ]
    },
    {
      "primitives": [
        {
          "mode": 4,
          "attributes": {
            "POSITION": 8,
            "NORMAL": 9,
            "TEXCOORD_0": 10
          },
          "indices": 11,
          "material": 2
        }
      ]
    }
  ],
  "animations": [
    {
      "name": "cart.glbAction",
      "samplers": [
        {
          "input": 12,
          "output": 13,
          "interpolation": "LINEAR"
        },
        {
          "input": 14,
          "output": 15,
          "interpolation": "LINEAR"
        },
        {
          "input": 16,
          "output": 17,
          "interpolation": "LINEAR"
        }
      ],
      "channels": [
        {
          "sampler": 0,
          "target": {
            "node": 4,
            "path": "translation"
          }
        },
        {
          "sampler": 1,
          "target": {
            "node": 4,
            "path": "rotation"
          }
        },
        {
          "sampler": 2,
          "target": {
            "node": 4,
            "path": "scale"
          }
        }
      ]
    },
    {
      "name": "EinkaufswagenAction",
      "samplers": [
        {
          "input": 18,
          "output": 19,
          "interpolation": "LINEAR"
        },
        {
          "input": 20,
          "output": 21,
          "interpolation": "LINEAR"
        },
        {
          "input": 22,
          "output": 23,
          "interpolation": "LINEAR"
        }
      ],
      "channels": [
        {
          "sampler": 0,
          "target": {
            "node": 3,
            "path": "translation"
          }
        },
        {
          "sampler": 1,
          "target": {
            "node": 3,
            "path": "rotation"
          }
        },
        {
          "sampler": 2,
          "target": {
            "node": 3,
            "path": "scale"
          }
        }
      ]
    },
    {
      "name": "BezierCurve001Action",
      "samplers": [
        {
          "input": 24,
          "output": 25,
          "interpolation": "LINEAR"
        },
        {
          "input": 26,
          "output": 27,
          "interpolation": "LINEAR"
        },
        {
          "input": 28,
          "output": 29,
          "interpolation": "LINEAR"
        }
      ],
      "channels": [
        {
          "sampler": 0,
          "target": {
            "node": 1,
            "path": "translation"
          }
        },
        {
          "sampler": 1,
          "target": {
            "node": 1,
            "path": "rotation"
          }
        },
        {
          "sampler": 2,
          "target": {
            "node": 1,
            "path": "scale"
          }
        }
      ]
    },
    {
      "name": "BezierCurve001_1Action",
      "samplers": [
        {
          "input": 30,
          "output": 31,
          "interpolation": "LINEAR"
        },
        {
          "input": 32,
          "output": 33,
          "interpolation": "LINEAR"
        },
        {
          "input": 34,
          "output": 35,
          "interpolation": "LINEAR"
        }
      ],
      "channels": [
        {
          "sampler": 0,
          "target": {
            "node": 0,
            "path": "translation"
          }
        },
        {
          "sampler": 1,
          "target": {
            "node": 0,
            "path": "rotation"
          }
        },
        {
          "sampler": 2,
          "target": {
            "node": 0,
            "path": "scale"
          }
        }
      ]
    },
    {
      "name": "BezierCurve001_2Action",
      "samplers": [
        {
          "input": 36,
          "output": 37,
          "interpolation": "LINEAR"
        },
        {
          "input": 38,
          "output": 39,
          "interpolation": "LINEAR"
        },
        {
          "input": 40,
          "output": 41,
          "interpolation": "LINEAR"
        }
      ],
      "channels": [
        {
          "sampler": 0,
          "target": {
            "node": 2,
            "path": "translation"
          }
        },
        {
          "sampler": 1,
          "target": {
            "node": 2,
            "path": "rotation"
          }
        },
        {
          "sampler": 2,
          "target": {
            "node": 2,
            "path": "scale"
          }
        }
      ]
    }
  ]
}