{
  "asset": {
    "version": "2.0",
    "generator": "THREE.GLTFExporter"
  },
  "scenes": [
    {
      "name": "Scene",
      "nodes": [
        3
      ]
    }
  ],
  "scene": 0,
  "nodes": [
    {
      "name": "Cube003",
      "mesh": 0
    },
    {
      "name": "Cube003_1",
      "mesh": 1
    },
    {
      "matrix": [
        0.08794841918890806,
        -0.0028250312859290244,
        0.003567586067980026,
        0,
        0.0028274305383479007,
        0.0880206711082293,
        -0.0000019331087540104096,
        0,
        -0.003565684880880626,
        0.0001164706813492241,
        0.08799377952784648,
        0,
        0.1526910662651062,
        0,
        0.1762571483850479,
        1
      ],
      "name": "Mouse",
      "extras": {
        "name": "Mouse"
      },
      "children": [
        0,
        1
      ]
    },
    {
      "name": "Mouse.glb",
      "children": [
        2
      ]
    }
  ],
  "bufferViews": [
    {
      "buffer": 0,
      "byteOffset": 0,
      "byteLength": 17784,
      "target": 34962,
      "byteStride": 12
    },
    {
      "buffer": 0,
      "byteOffset": 17784,
      "byteLength": 17784,
      "target": 34962,
      "byteStride": 12
    },
    {
      "buffer": 0,
      "byteOffset": 35568,
      "byteLength": 11856,
      "target": 34962,
      "byteStride": 8
    },
    {
      "buffer": 0,
      "byteOffset": 47424,
      "byteLength": 12000,
      "target": 34963
    },
    {
      "buffer": 0,
      "byteOffset": 59424,
      "byteLength": 4080,
      "target": 34962,
      "byteStride": 12
    },
    {
      "buffer": 0,
      "byteOffset": 63504,
      "byteLength": 4080,
      "target": 34962,
      "byteStride": 12
    },
    {
      "buffer": 0,
      "byteOffset": 67584,
      "byteLength": 2720,
      "target": 34962,
      "byteStride": 8
    },
    {
      "buffer": 0,
      "byteOffset": 70304,
      "byteLength": 2784,
      "target": 34963
    }
  ],
  "buffers": [
    {
      "byteLength": 73088,
      "uri": "data:application/octet-stream;base64,"
    }
  ],
  "accessors": [
    {
      "bufferView": 0,
      "componentType": 5126,
      "count": 1482,
      "max": [
        8.969690322875977,
        1.837673306465149,
        16.833206176757812
      ],
      "min": [
        -13.272785186767578,
        -1.8377422094345093,
        -23.070262908935547
      ],
      "type": "VEC3"
    },
    {
      "bufferView": 1,
      "componentType": 5126,
      "count": 1482,
      "max": [
        1,
        1,
        1
      ],
      "min": [
        -1,
        -1,
        -1
      ],
      "type": "VEC3"
    },
    {
      "bufferView": 2,
      "componentType": 5126,
      "count": 1482,
      "max": [
        0.8749695420265198,
        1
      ],
      "min": [
        0,
        0
      ],
      "type": "VEC2"
    },
    {
      "bufferView": 3,
      "componentType": 5125,
      "count": 3000,
      "max": [
        1481
      ],
      "min": [
        0
      ],
      "type": "SCALAR"
    },
    {
      "bufferView": 4,
      "componentType": 5126,
      "count": 340,
      "max": [
        5.068850517272949,
        1.1167634725570679,
        14.866561889648438
      ],
      "min": [
        -11.272786140441895,
        -1.11648428440094,
        -18.69976806640625
      ],
      "type": "VEC3"
    },
    {
      "bufferView": 5,
      "componentType": 5126,
      "count": 340,
      "max": [
        0,
        1,
        0
      ],
      "min": [
        0,
        -1,
        0
      ],
      "type": "VEC3"
    },
    {
      "bufferView": 6,
      "componentType": 5126,
      "count": 340,
      "max": [
        0.624908447265625,
        1
      ],
      "min": [
        0,
        0
      ],
      "type": "VEC2"
    },
    {
      "bufferView": 7,
      "componentType": 5125,
      "count": 696,
      "max": [
        339
      ],
      "min": [
        0
      ],
      "type": "SCALAR"
    }
  ],
  "materials": [
    {
      "pbrMetallicRoughness": {
        "baseColorFactor": [
          0,
          0,
          0,
          1
        ],
        "metallicFactor": 0.800000011920929,
        "roughnessFactor": 0.5
      },
      "doubleSided": true,
      "name": "Black"
    },
    {
      "pbrMetallicRoughness": {
        "metallicFactor": 0,
        "roughnessFactor": 1
      },
      "doubleSided": true,
      "name": "White"
    }
  ],
  "meshes": [
    {
      "primitives": [
        {
          "mode": 4,
          "attributes": {
            "POSITION": 0,
            "NORMAL": 1,
            "TEXCOORD_0": 2
          },
          "indices": 3,
          "material": 0
        }
      ]
    },
    {
      "primitives": [
        {
          "mode": 4,
          "attributes": {
            "POSITION": 4,
            "NORMAL": 5,
            "TEXCOORD_0": 6
          },
          "indices": 7,
          "material": 1
        }
      ]
    }
  ]
}