<?xml version="1.0" standalone="no"?>
<!DOCTYPE svg PUBLIC "-//W3C//DTD SVG 20010904//EN"
 "http://www.w3.org/TR/2001/REC-SVG-20010904/DTD/svg10.dtd">
<svg version="1.0" xmlns="http://www.w3.org/2000/svg"
 width="100.000000pt" height="100.000000pt" viewBox="0 0 100.000000 100.000000"
 preserveAspectRatio="xMidYMid meet">
<metadata>
Created by potrace 1.16, written by Peter Selinger 2001-2019
</metadata>
<g transform="translate(0.000000,100.000000) scale(0.100000,-0.100000)"
fill="#000000" stroke="none">
<path d="M0 500 l0 -500 500 0 500 0 0 500 0 500 -500 0 -500 0 0 -500z m638
346 c74 -19 136 -36 138 -39 2 -2 -59 -30 -136 -62 l-140 -58 0 -173 0 -174
130 65 c71 36 140 65 152 65 38 0 119 -33 150 -62 36 -34 36 -63 -2 -98 -63
-59 -219 -92 -430 -92 -80 0 -174 5 -210 11 -150 27 -250 79 -250 131 0 32 54
77 116 97 l54 17 0 167 0 167 138 35 c75 19 142 35 147 36 6 0 70 -15 143 -33z
m6 -682 c8 -20 8 -88 0 -108 -5 -12 -20 -16 -60 -16 l-54 0 0 63 c0 35 3 67 7
70 3 4 28 7 54 7 33 0 49 -4 53 -16z"/>
</g>
</svg>
